<svg width="2100px" height="750px" xmlns="http://www.w3.org/2000/svg" xmlns:xlink="http://www.w3.org/1999/xlink">
<g style="">  <path d="M315.725000,274.100000 C359.058550,274.100000,394.049867,287.099870,420.700000,313.100000 C447.350133,339.100130,460.675000,377.666411,460.675000,428.800000 L460.675000,629.000000 L359.275000,629.000000 L359.275000,444.400000 C359.275000,416.666528,353.208394,395.975068,341.075000,382.325000 C328.941606,368.674932,311.391781,361.850000,288.425000,361.850000 C262.858205,361.850000,242.491742,369.758254,227.325000,385.575000 C212.158257,401.391746,204.575000,424.899844,204.575000,456.100000 L204.575000,629.000000 L103.175000,629.000000 L103.175000,146.700000 L204.575000,146.700000 L204.575000,315.700000 C218.008400,302.266599,234.258238,291.975036,253.325000,284.825000 C272.391762,277.674964,293.191554,274.100000,315.725000,274.100000 Z M873.775000,455.450000 C873.775000,456.750007,873.125006,465.849915,871.825000,482.750000 L607.275000,482.750000 C612.041690,504.416775,623.308244,521.533271,641.075000,534.100000 C658.841755,546.666730,680.941534,552.950000,707.375000,552.950000 C725.575091,552.950000,741.716596,550.241694,755.800000,544.825000 C769.883404,539.408306,782.991606,530.850059,795.125000,519.150000 L849.075000,577.650000 C816.141502,615.350189,768.041983,634.200000,704.775000,634.200000 C665.341469,634.200000,630.458485,626.508410,600.125000,611.125000 C569.791515,595.741590,546.391749,574.400136,529.925000,547.100000 C513.458251,519.799864,505.225000,488.816840,505.225000,454.150000 C505.225000,419.916495,513.349919,389.041804,529.600000,361.525000 C545.850081,334.008196,568.166525,312.558410,596.550000,297.175000 C624.933475,281.791590,656.674824,274.100000,691.775000,274.100000 C726.008504,274.100000,756.991528,281.466593,784.725000,296.200000 C812.458472,310.933407,834.233254,332.058196,850.050000,359.575000 C865.866746,387.091804,873.775000,419.049818,873.775000,455.450000 Z M692.425000,350.800000 C669.458218,350.800000,650.175078,357.299935,634.575000,370.300000 C618.974922,383.300065,609.441684,401.066554,605.975000,423.600000 L778.225000,423.600000 C774.758316,401.499890,765.225078,383.841733,749.625000,370.625000 C734.024922,357.408267,714.958446,350.800000,692.425000,350.800000 Z M1141.925000,612.100000 C1131.958283,619.466703,1119.716739,624.991648,1105.200000,628.675000 C1090.683261,632.358352,1075.408413,634.200000,1059.375000,634.200000 C1017.774792,634.200000,985.600114,623.583439,962.850000,602.350000 C940.099886,581.116560,928.725000,549.916872,928.725000,508.750000 L928.725000,365.100000 L874.775000,365.100000 L874.775000,287.100000 L928.725000,287.100000 L928.725000,201.950000 L1030.125000,201.950000 L1030.125000,287.100000 L1117.225000,287.100000 L1117.225000,365.100000 L1030.125000,365.100000 L1030.125000,507.450000 C1030.125000,522.183407,1033.916629,533.558293,1041.500000,541.575000 C1049.083371,549.591707,1059.808264,553.600000,1073.675000,553.600000 C1089.708413,553.600000,1103.358277,549.266710,1114.625000,540.600000 Z M1488.725000,394.350000 L1584.925000,394.350000 L1584.925000,578.950000 C1560.224876,597.583426,1531.625162,611.883283,1499.125000,621.850000 C1466.624837,631.816716,1433.908498,636.800000,1400.975000,636.800000 C1353.741430,636.800000,1311.275188,626.725101,1273.575000,606.575000 C1235.874811,586.424899,1206.300107,558.475179,1184.850000,522.725000 C1163.399893,486.974821,1152.675000,446.566892,1152.675000,401.500000 C1152.675000,356.433108,1163.399893,316.025179,1184.850000,280.275000 C1206.300107,244.524821,1236.091476,216.575101,1274.225000,196.425000 C1312.358524,176.274899,1355.258095,166.200000,1402.925000,166.200000 C1442.791866,166.200000,1478.974837,172.916600,1511.475000,186.350000 C1543.975162,199.783400,1571.274889,219.283205,1593.375000,244.850000 L1525.775000,307.250000 C1493.274837,273.016496,1454.058563,255.900000,1408.125000,255.900000 C1379.091521,255.900000,1353.308446,261.966606,1330.775000,274.100000 C1308.241554,286.233394,1290.691729,303.349890,1278.125000,325.450000 C1265.558270,347.550110,1259.275000,372.899857,1259.275000,401.500000 C1259.275000,429.666808,1265.558270,454.799890,1278.125000,476.900000 C1290.691729,499.000110,1308.133222,516.224938,1330.450000,528.575000 C1352.766778,540.925062,1378.224857,547.100000,1406.825000,547.100000 C1437.158485,547.100000,1464.458212,540.600065,1488.725000,527.600000 Z M2009.725000,544.500000 L2009.725000,629.000000 L1657.425000,629.000000 L1657.425000,174.000000 L2001.275000,174.000000 L2001.275000,258.500000 L1762.075000,258.500000 L1762.075000,357.300000 L1973.325000,357.300000 L1973.325000,439.200000 L1762.075000,439.200000 L1762.075000,544.500000 Z " style="fill: rgba(23, 178, 159, 1.000000); stroke-width: 0.000000px; stroke: rgba(255, 255, 255, 1.000000); " fill="#00bdae" stroke="#fefffe" stroke-width="0.000000" />
</g></svg>