<?xml version="1.0" encoding="UTF-8"?>
<!DOCTYPE svg PUBLIC "-//W3C//DTD SVG 1.1//EN" "http://www.w3.org/Graphics/SVG/1.1/DTD/svg11.dtd">
<svg version="1.1" xmlns="http://www.w3.org/2000/svg" xmlns:xlink="http://www.w3.org/1999/xlink" x="0" y="0" width="280" height="400" viewBox="0, 0, 280, 400">
  <g id="Layer_1">
    <path d="M226.212,10.141 L229.191,10.225 C236.308,10.924 242.891,14.024 248,19 C254.036,27.331 254.22,37.82 253.753,47.696 C253.649,49.672 253.55,51.648 253.455,53.625 C253.404,54.69 253.354,55.725 253.305,56.759 C253.066,61.598 252.848,66.438 252.647,71.279 C252.572,73.103 252.496,74.926 252.42,76.749 C252.079,84.873 251.742,92.997 251.405,101.121 C251.226,105.45 251.046,109.78 250.865,114.109 C250.018,134.288 249.148,154.466 248.476,174.651 C248.429,176.077 248.383,177.504 248.336,178.93 C247.968,189.492 247.985,199.762 249.564,210.226 C249.712,211.169 249.856,212.085 250,213 C250.682,217.454 251.379,221.904 252.112,226.349 C252.223,227.017 252.33,227.665 252.438,228.312 C253.774,236.438 254.689,244.215 259.465,251.117 C263.302,255.698 266.495,260.156 268,266 C271.577,295.919 252.728,331.205 236,355 C219.727,375.112 195.401,383.43 170.564,387.055 C140.724,390.898 109.666,384.632 85.659,366.28 C84.821,365.634 84.821,365.634 84,365 C78.408,360.698 72.861,356.46 68.449,350.91 C67.956,350.261 67.478,349.63 67,349 C58.482,338.365 52.586,326.945 48.098,314.121 C47.788,313.208 47.488,312.323 47.188,311.438 C42.958,299.058 40.817,286.563 39.925,273.561 C38.997,259.508 37.732,245.51 35.989,231.534 C35.887,230.715 35.787,229.92 35.688,229.125 C32.457,202.754 28.191,176.498 23.631,150.328 C23.379,148.888 23.379,148.888 23.133,147.477 C21.631,138.874 20.123,130.274 18.604,121.675 C17.743,116.808 16.886,111.941 16.036,107.072 C15.715,105.227 15.393,103.383 15.07,101.539 C14.609,98.951 14.147,96.364 13.696,93.775 C13.487,92.57 13.487,92.57 13.282,91.389 C11.888,83.718 10.976,75.629 13,68 C15.876,61.083 18.795,54.879 25.938,51.687 C35.354,49.514 45.541,50.103 54.063,54.625 C67.393,72.172 67.393,72.172 71.895,94.338 C73.05,99.59 74.221,104.838 75.402,110.084 C75.649,111.182 75.889,112.247 76.129,113.312 C78.51,123.924 81.003,134.504 83.59,145.067 C83.793,145.894 83.99,146.697 84.188,147.5 C85.453,152.668 86.723,157.835 88,163 C90.309,161.271 92.594,159.586 95,158 C105.652,152.97 115.932,153.003 127.234,155.562 C127.835,155.711 128.417,155.856 129,156 C129.865,154.339 130.747,152.684 131.691,151.066 C137.335,142.154 144.606,136.703 155.02,134.305 C166.281,132.917 175.286,135.778 184.234,142.574 C184.835,143.059 185.417,143.529 186,144 C185.914,138.462 186.093,133.079 186.665,127.571 C186.766,126.645 186.864,125.748 186.962,124.85 C187.287,121.772 187.613,118.695 187.945,115.619 C188.184,113.421 188.421,111.224 188.657,109.026 C189.151,104.424 189.647,99.822 190.147,95.221 C190.797,89.26 191.442,83.299 192.074,77.336 C192.568,72.672 193.068,68.009 193.574,63.346 C193.817,61.116 194.059,58.886 194.301,56.656 C194.636,53.469 194.973,50.282 195.323,47.096 C195.434,46.094 195.542,45.122 195.65,44.15 C196.599,34.895 198.184,26.204 204.137,18.789 C209.645,14.013 215.857,10.849 223.226,10.195 L226.212,10.141 z M38.893,64.188 L37.486,64.199 C33.226,64.934 30.967,66.808 28.187,70.125 C25.701,76.145 25.689,82.072 26.75,88.437 C27.411,91.898 28.054,95.346 28.594,98.828 C30.016,108.308 31.648,117.744 33.37,127.174 C33.499,127.88 33.625,128.565 33.75,129.25 C34.977,135.97 36.207,142.69 37.443,149.409 C43.326,181.373 48.016,213.211 51.254,245.553 C51.339,246.402 51.422,247.226 51.504,248.049 C51.67,249.7 51.835,251.35 52,253 C53.738,270.453 54.787,288.248 60.325,304.999 C60.554,305.679 60.777,306.34 61,307 C64.815,318.835 69.63,329.579 77.562,339.312 C78.391,340.226 79.196,341.113 80,342 C92.853,357.281 108.683,366.059 128,371 C156.297,377.658 186.26,373.66 211.27,358.637 C235.294,342.049 248.471,308.084 253.562,280.457 C254.643,271.917 253.358,266.645 248.333,259.695 C247.419,258.506 247.419,258.506 246.523,257.34 C245.837,256.443 245.17,255.573 244.504,254.703 C243.064,252.833 241.628,250.961 240.194,249.086 C238.131,246.389 236.066,243.694 234,241 C229.506,235.147 225.201,229.395 221.5,223 C221.022,222.107 220.558,221.241 220.094,220.375 C214.893,214.476 214.893,214.476 198.962,212.327 C197.038,212.09 195.114,211.853 193.191,211.603 C190.452,211.243 187.712,210.886 184.971,210.542 C181.445,210.104 177.92,209.661 174.397,209.198 C171.63,208.834 168.862,208.474 166.093,208.119 C164.762,207.949 163.432,207.779 162.102,207.609 C153.683,206.515 145.495,205.748 137,206 C136.314,207.659 135.649,209.326 135,211 C133.904,217.866 135.589,224.028 139,230 C147.762,241.421 161.309,247.685 175.062,250.562 C180.578,251.659 185.716,253.087 191,255 C191.251,258.346 191.537,261.676 192,265 C192.7,266.989 193.377,268.986 194,271 C193.117,273.537 192.27,274.791 190.14,276.444 C189.376,276.895 188.635,277.332 187.895,277.77 C186.206,278.794 184.512,279.808 182.812,280.812 C173.37,286.394 166.863,292.212 160.937,301.437 C159.406,303.904 157.967,305.808 156,308 C152.734,308.485 150.947,308.473 148,307 C147.976,306.304 147.953,305.629 147.93,304.953 C147.911,304.034 147.893,303.142 147.875,302.25 C147.746,297.331 148.729,294.79 151.551,290.816 C152.15,290.05 152.731,289.306 153.312,288.562 C157.621,282.996 162.087,278.747 168.062,275 C172.552,272.192 174.548,270.315 178,266 C169.5,263.28 161.25,260.64 153,258 C148.789,266.422 145.929,272 138.125,276.75 C136.547,277.381 136.547,277.381 135,278 C132.027,279.405 129.231,280.348 126,281 C117.681,281.906 108.924,282.493 101.785,277.527 C101.178,277.008 100.589,276.504 100,276 C90.258,267.743 88.521,254.953 87.445,242.953 C85.053,215.581 79.451,188.717 73.218,162.002 C72.855,160.455 72.855,160.455 72.5,158.937 C70.003,148.26 67.445,137.607 64.634,127.008 C62.016,117.15 59.746,107.351 57.937,97.312 C57.086,92.504 56.199,87.735 55,83 C52.471,75.631 50.149,68.903 43,65 C40.747,64.396 42.107,64.712 38.893,64.188 z M111.864,167.235 L110.319,167.304 C104.693,168.217 100.829,169.493 97,174 C92.22,183.275 93.616,193.947 95.27,203.879 C97.122,214.534 98.519,225.174 99.562,235.937 C100.384,245.112 100.881,255.01 105.875,263 C109.043,265.982 111.609,267.848 116.008,268.328 C117.068,268.302 118.096,268.276 119.125,268.25 C125.342,268.157 129.036,266.85 134,263 C137.089,258.935 138.291,255.974 138.625,250.875 C138.458,246.926 138.301,246.301 135.375,243.375 C130.449,240.029 127.354,235.754 124.734,230.426 C120.631,220.298 120.796,210.132 125,200 C125.914,199.022 126.801,198.074 127.687,197.125 C131.315,192.223 130.702,186.904 130,181 C128.258,175.932 126.348,173.032 122.062,169.75 C118.807,168.367 115.473,167.124 111.864,167.235 z M227.905,24 C224.009,24.255 221.674,24.357 218,26 C210.567,32.361 210.567,32.361 205.062,90.062 C203.99,101.345 202.871,112.611 201.446,123.855 C198.844,144.104 188.255,180.51 198,200 C198.732,200.105 199.442,200.207 200.152,200.308 C203.119,200.446 206.048,200.675 209,201 C217.061,202.745 224.13,205.202 229.188,212 C231.251,214.965 233.331,217.537 236,220 C236.084,215.337 236.123,210.692 235.784,206.038 C235.178,199.26 234.83,192.524 234.76,185.719 C234.755,183.746 234.755,183.746 234.75,181.812 C235.19,155.754 235.19,155.754 236.648,129.727 C237.617,112.331 238.376,94.959 238.668,77.538 C238.788,70.108 238.872,62.702 239.512,55.293 C240.086,49.176 240.321,43.141 240,37 C239.322,32.17 237.725,28.247 234,25 C230.626,24.146 232.643,24.562 227.905,24 z M159.203,147.764 L157.371,147.792 C153.459,148.317 150.213,148.893 147.188,151.687 C144.5,156.921 142.636,160.913 142.584,166.901 C142.598,167.614 142.611,168.307 142.625,169 C142.691,177.267 144.039,184.979 146,193 C148.885,193.362 151.77,193.717 154.656,194.066 C155.878,194.214 157.064,194.357 158.25,194.5 C166.885,195.584 175.293,196.214 184,196 C182.75,186.313 181.514,176.611 179.911,166.975 C179.793,166.282 179.678,165.61 179.562,164.937 C178.474,158.414 176.376,155.086 171.438,150.75 C167.545,149.041 163.496,147.81 159.203,147.764 z" fill="#000000"/>
  </g>
</svg>
